<mxfile host="app.diagrams.net" agent="Mozilla/5.0 (Macintosh; Intel Mac OS X 10_15_7) AppleWebKit/537.36 (KHTML, like Gecko) Chrome/141.0.0.0 Safari/537.36" version="28.2.8">
  <diagram name="ページ1" id="NnJsKzHRvR2MtAni5SRp">
    <mxGraphModel dx="2222" dy="2103" grid="1" gridSize="10" guides="1" tooltips="1" connect="1" arrows="1" fold="1" page="1" pageScale="1" pageWidth="827" pageHeight="1169" math="0" shadow="0">
      <root>
        <mxCell id="0" />
        <mxCell id="1" parent="0" />
        <mxCell id="pQJ2UA4PGWdk1iYAKSUe-1" value="" style="rounded=0;whiteSpace=wrap;html=1;" parent="1" vertex="1">
          <mxGeometry x="-90" y="190" width="1030" height="270" as="geometry" />
        </mxCell>
        <mxCell id="pQJ2UA4PGWdk1iYAKSUe-2" value="" style="rounded=0;whiteSpace=wrap;html=1;" parent="1" vertex="1">
          <mxGeometry x="-90" y="-360" width="1030" height="550" as="geometry" />
        </mxCell>
        <mxCell id="pQJ2UA4PGWdk1iYAKSUe-4" value="" style="rounded=0;whiteSpace=wrap;html=1;" parent="1" vertex="1">
          <mxGeometry x="-90" y="730" width="1030" height="190" as="geometry" />
        </mxCell>
        <mxCell id="pQJ2UA4PGWdk1iYAKSUe-5" value="&lt;font style=&quot;font-size: 36px;&quot;&gt;アクチュエータ層&lt;/font&gt;" style="text;html=1;whiteSpace=wrap;strokeColor=none;fillColor=none;align=center;verticalAlign=middle;rounded=0;" parent="1" vertex="1">
          <mxGeometry x="-60" y="815" width="167" height="30" as="geometry" />
        </mxCell>
        <mxCell id="pQJ2UA4PGWdk1iYAKSUe-6" value="" style="rounded=0;whiteSpace=wrap;html=1;" parent="1" vertex="1">
          <mxGeometry x="-90" y="460" width="1030" height="270" as="geometry" />
        </mxCell>
        <mxCell id="pQJ2UA4PGWdk1iYAKSUe-7" value="" style="rounded=1;whiteSpace=wrap;html=1;" parent="1" vertex="1">
          <mxGeometry x="530" y="490" width="350" height="210" as="geometry" />
        </mxCell>
        <mxCell id="pQJ2UA4PGWdk1iYAKSUe-9" value="LoadSW" style="rounded=0;whiteSpace=wrap;html=1;" parent="1" vertex="1">
          <mxGeometry x="350" y="510" width="120" height="60" as="geometry" />
        </mxCell>
        <mxCell id="pQJ2UA4PGWdk1iYAKSUe-10" value="エア基板" style="rounded=0;whiteSpace=wrap;html=1;" parent="1" vertex="1">
          <mxGeometry x="150" y="620" width="120" height="60" as="geometry" />
        </mxCell>
        <mxCell id="pQJ2UA4PGWdk1iYAKSUe-11" value="" style="endArrow=none;html=1;rounded=0;fontSize=12;startSize=16;endSize=16;curved=1;entryX=0.5;entryY=1;entryDx=0;entryDy=0;exitX=0.5;exitY=0;exitDx=0;exitDy=0;endFill=0;startArrow=classic;startFill=1;" parent="1" source="pQJ2UA4PGWdk1iYAKSUe-12" target="pQJ2UA4PGWdk1iYAKSUe-10" edge="1">
          <mxGeometry width="50" height="50" relative="1" as="geometry">
            <mxPoint x="410" y="750" as="sourcePoint" />
            <mxPoint x="420" y="520" as="targetPoint" />
          </mxGeometry>
        </mxCell>
        <mxCell id="pQJ2UA4PGWdk1iYAKSUe-12" value="エアシリンダ" style="rounded=0;whiteSpace=wrap;html=1;" parent="1" vertex="1">
          <mxGeometry x="150" y="795" width="120" height="60" as="geometry" />
        </mxCell>
        <mxCell id="pQJ2UA4PGWdk1iYAKSUe-14" value="ESP32" style="rounded=0;whiteSpace=wrap;html=1;" parent="1" vertex="1">
          <mxGeometry x="575" y="510" width="120" height="60" as="geometry" />
        </mxCell>
        <mxCell id="pQJ2UA4PGWdk1iYAKSUe-15" value="ロードセル" style="rounded=0;whiteSpace=wrap;html=1;" parent="1" vertex="1">
          <mxGeometry x="575" y="610" width="120" height="60" as="geometry" />
        </mxCell>
        <mxCell id="K-jnSiiK8jrjsHDx-08f-12" value="" style="edgeStyle=orthogonalEdgeStyle;rounded=0;orthogonalLoop=1;jettySize=auto;html=1;" edge="1" parent="1" source="pQJ2UA4PGWdk1iYAKSUe-16" target="pQJ2UA4PGWdk1iYAKSUe-10">
          <mxGeometry relative="1" as="geometry" />
        </mxCell>
        <mxCell id="pQJ2UA4PGWdk1iYAKSUe-16" value="USB2CANFD" style="rounded=0;whiteSpace=wrap;html=1;" parent="1" vertex="1">
          <mxGeometry x="150" y="510" width="120" height="60" as="geometry" />
        </mxCell>
        <mxCell id="pQJ2UA4PGWdk1iYAKSUe-20" value="" style="endArrow=classic;html=1;rounded=0;fontSize=12;startSize=8;endSize=8;curved=1;entryX=1;entryY=0.5;entryDx=0;entryDy=0;exitX=0;exitY=0.5;exitDx=0;exitDy=0;startArrow=classic;startFill=1;endFill=1;" parent="1" source="pQJ2UA4PGWdk1iYAKSUe-9" target="pQJ2UA4PGWdk1iYAKSUe-16" edge="1">
          <mxGeometry width="50" height="50" relative="1" as="geometry">
            <mxPoint x="410" y="610" as="sourcePoint" />
            <mxPoint x="410" y="590" as="targetPoint" />
          </mxGeometry>
        </mxCell>
        <mxCell id="pQJ2UA4PGWdk1iYAKSUe-22" value="" style="endArrow=classic;html=1;rounded=0;fontSize=12;startSize=8;endSize=13;curved=1;entryX=0.5;entryY=1;entryDx=0;entryDy=0;exitX=0.5;exitY=0;exitDx=0;exitDy=0;startArrow=none;startFill=0;endFill=1;" parent="1" source="pQJ2UA4PGWdk1iYAKSUe-15" target="pQJ2UA4PGWdk1iYAKSUe-14" edge="1">
          <mxGeometry width="50" height="50" relative="1" as="geometry">
            <mxPoint x="750" y="560" as="sourcePoint" />
            <mxPoint x="750" y="480" as="targetPoint" />
          </mxGeometry>
        </mxCell>
        <mxCell id="pQJ2UA4PGWdk1iYAKSUe-23" value="bno055" style="rounded=0;whiteSpace=wrap;html=1;" parent="1" vertex="1">
          <mxGeometry x="740" y="510" width="120" height="60" as="geometry" />
        </mxCell>
        <mxCell id="pQJ2UA4PGWdk1iYAKSUe-24" value="" style="endArrow=classic;html=1;rounded=0;fontSize=12;startSize=8;endSize=12;curved=1;entryX=1;entryY=0.5;entryDx=0;entryDy=0;exitX=0;exitY=0.5;exitDx=0;exitDy=0;endFill=1;" parent="1" source="pQJ2UA4PGWdk1iYAKSUe-23" target="pQJ2UA4PGWdk1iYAKSUe-14" edge="1">
          <mxGeometry width="50" height="50" relative="1" as="geometry">
            <mxPoint x="630" y="620" as="sourcePoint" />
            <mxPoint x="630" y="580" as="targetPoint" />
          </mxGeometry>
        </mxCell>
        <mxCell id="pQJ2UA4PGWdk1iYAKSUe-25" value="&lt;font style=&quot;font-size: 24px;&quot;&gt;ヨット上&lt;/font&gt;" style="text;html=1;whiteSpace=wrap;strokeColor=none;fillColor=none;align=center;verticalAlign=middle;rounded=0;" parent="1" vertex="1">
          <mxGeometry x="746.5" y="625" width="107" height="30" as="geometry" />
        </mxCell>
        <mxCell id="pQJ2UA4PGWdk1iYAKSUe-26" value="&lt;span style=&quot;font-size: 24px;&quot;&gt;ヨット&lt;/span&gt;&lt;div&gt;&lt;span style=&quot;font-size: 24px;&quot;&gt;の外&lt;/span&gt;&lt;/div&gt;" style="text;html=1;whiteSpace=wrap;strokeColor=none;fillColor=none;align=center;verticalAlign=middle;rounded=0;" parent="1" vertex="1">
          <mxGeometry x="30" y="580" width="107" height="30" as="geometry" />
        </mxCell>
        <mxCell id="pQJ2UA4PGWdk1iYAKSUe-27" value="&lt;font style=&quot;font-size: 36px;&quot;&gt;基板層&lt;/font&gt;" style="text;html=1;whiteSpace=wrap;strokeColor=none;fillColor=none;align=center;verticalAlign=middle;rounded=0;" parent="1" vertex="1">
          <mxGeometry x="-60" y="580" width="60" height="30" as="geometry" />
        </mxCell>
        <mxCell id="pQJ2UA4PGWdk1iYAKSUe-28" value="&lt;font style=&quot;font-size: 36px;&quot;&gt;通信層&lt;/font&gt;" style="text;html=1;whiteSpace=wrap;strokeColor=none;fillColor=none;align=center;verticalAlign=middle;rounded=0;" parent="1" vertex="1">
          <mxGeometry x="-60" y="310" width="60" height="30" as="geometry" />
        </mxCell>
        <mxCell id="pQJ2UA4PGWdk1iYAKSUe-29" value="&lt;font style=&quot;font-size: 36px;&quot;&gt;Unity層&lt;/font&gt;" style="text;html=1;whiteSpace=wrap;strokeColor=none;fillColor=none;align=center;verticalAlign=middle;rounded=0;" parent="1" vertex="1">
          <mxGeometry x="-60" y="-100" width="60" height="30" as="geometry" />
        </mxCell>
        <mxCell id="pQJ2UA4PGWdk1iYAKSUe-30" value="USB2CANFD&lt;div&gt;for Windows&lt;/div&gt;" style="rounded=0;whiteSpace=wrap;html=1;" parent="1" vertex="1">
          <mxGeometry x="150" y="295" width="120" height="60" as="geometry" />
        </mxCell>
        <mxCell id="pQJ2UA4PGWdk1iYAKSUe-31" value="接続方式：USB&lt;br&gt;プロトコル：Uart" style="text;html=1;whiteSpace=wrap;strokeColor=none;fillColor=none;align=center;verticalAlign=middle;rounded=0;" parent="1" vertex="1">
          <mxGeometry x="74" y="390" width="150" height="30" as="geometry" />
        </mxCell>
        <mxCell id="K-jnSiiK8jrjsHDx-08f-7" style="edgeStyle=orthogonalEdgeStyle;rounded=0;orthogonalLoop=1;jettySize=auto;html=1;exitX=0.5;exitY=0;exitDx=0;exitDy=0;" edge="1" parent="1" source="pQJ2UA4PGWdk1iYAKSUe-32" target="K-jnSiiK8jrjsHDx-08f-2">
          <mxGeometry relative="1" as="geometry" />
        </mxCell>
        <mxCell id="pQJ2UA4PGWdk1iYAKSUe-32" value="OSCJack" style="rounded=0;whiteSpace=wrap;html=1;" parent="1" vertex="1">
          <mxGeometry x="575" y="265" width="120" height="60" as="geometry" />
        </mxCell>
        <mxCell id="pQJ2UA4PGWdk1iYAKSUe-33" value="接続方法：WiFi&lt;div&gt;プロトコル：OSC&lt;/div&gt;" style="text;html=1;whiteSpace=wrap;strokeColor=none;fillColor=none;align=center;verticalAlign=middle;rounded=0;" parent="1" vertex="1">
          <mxGeometry x="682" y="280" width="145" height="30" as="geometry" />
        </mxCell>
        <mxCell id="pQJ2UA4PGWdk1iYAKSUe-34" value="接続方式：内部&lt;div&gt;プロトコル：TCP&lt;/div&gt;" style="text;html=1;whiteSpace=wrap;strokeColor=none;fillColor=none;align=center;verticalAlign=middle;rounded=0;" parent="1" vertex="1">
          <mxGeometry x="100" y="230" width="100" height="30" as="geometry" />
        </mxCell>
        <mxCell id="pQJ2UA4PGWdk1iYAKSUe-35" value="&lt;font style=&quot;font-size: 36px;&quot;&gt;PC&lt;/font&gt;" style="text;html=1;whiteSpace=wrap;strokeColor=none;fillColor=none;align=center;verticalAlign=middle;rounded=0;" parent="1" vertex="1">
          <mxGeometry x="77" y="40" width="60" height="30" as="geometry" />
        </mxCell>
        <mxCell id="pQJ2UA4PGWdk1iYAKSUe-36" value="" style="rounded=0;whiteSpace=wrap;html=1;" parent="1" vertex="1">
          <mxGeometry x="-90" y="-630" width="1030" height="270" as="geometry" />
        </mxCell>
        <mxCell id="pQJ2UA4PGWdk1iYAKSUe-37" value="&lt;font style=&quot;font-size: 36px;&quot;&gt;MetaQuest層&lt;/font&gt;" style="text;html=1;whiteSpace=wrap;strokeColor=none;fillColor=none;align=center;verticalAlign=middle;rounded=0;" parent="1" vertex="1">
          <mxGeometry x="-60" y="-510" width="140" height="30" as="geometry" />
        </mxCell>
        <mxCell id="pQJ2UA4PGWdk1iYAKSUe-38" value="" style="rounded=1;whiteSpace=wrap;html=1;" parent="1" vertex="1">
          <mxGeometry x="210" y="-600" width="490" height="200" as="geometry" />
        </mxCell>
        <mxCell id="pQJ2UA4PGWdk1iYAKSUe-39" value="Meta Quest" style="rounded=0;whiteSpace=wrap;html=1;" parent="1" vertex="1">
          <mxGeometry x="365" y="-525" width="120" height="60" as="geometry" />
        </mxCell>
        <mxCell id="pQJ2UA4PGWdk1iYAKSUe-40" value="&lt;font style=&quot;font-size: 36px;&quot;&gt;MetaQuest&lt;/font&gt;" style="text;html=1;whiteSpace=wrap;strokeColor=none;fillColor=none;align=center;verticalAlign=middle;rounded=0;" parent="1" vertex="1">
          <mxGeometry x="224" y="-580" width="190" height="30" as="geometry" />
        </mxCell>
        <mxCell id="pQJ2UA4PGWdk1iYAKSUe-41" value="" style="endArrow=classic;html=1;rounded=0;entryX=0.5;entryY=1;entryDx=0;entryDy=0;endFill=1;startArrow=classic;startFill=1;startSize=16;endSize=16;" parent="1" source="K-jnSiiK8jrjsHDx-08f-1" target="pQJ2UA4PGWdk1iYAKSUe-39" edge="1">
          <mxGeometry width="50" height="50" relative="1" as="geometry">
            <mxPoint x="520" y="160" as="sourcePoint" />
            <mxPoint x="570" y="110" as="targetPoint" />
          </mxGeometry>
        </mxCell>
        <mxCell id="pQJ2UA4PGWdk1iYAKSUe-42" value="基板に指令を送る。一方通行でいいかも。&lt;div&gt;指令自体はUnity層で定義してほしい。&lt;/div&gt;&lt;div&gt;送るフォーマットは&lt;span style=&quot;background-color: transparent; color: light-dark(rgb(0, 0, 0), rgb(255, 255, 255));&quot;&gt;指定します。&lt;/span&gt;&lt;/div&gt;" style="text;html=1;whiteSpace=wrap;strokeColor=none;fillColor=none;align=center;verticalAlign=middle;rounded=0;" parent="1" vertex="1">
          <mxGeometry x="224" y="200" width="246" height="80" as="geometry" />
        </mxCell>
        <mxCell id="pQJ2UA4PGWdk1iYAKSUe-43" value="&lt;div&gt;送れる内容&lt;/div&gt;モーター：速度[rad/s]&lt;div&gt;エア：ON/OFF&lt;/div&gt;" style="text;html=1;whiteSpace=wrap;strokeColor=none;fillColor=none;align=center;verticalAlign=middle;rounded=0;" parent="1" vertex="1">
          <mxGeometry x="287" y="270" width="120" height="50" as="geometry" />
        </mxCell>
        <mxCell id="pQJ2UA4PGWdk1iYAKSUe-44" value="" style="endArrow=classic;html=1;rounded=0;exitX=0.5;exitY=1;exitDx=0;exitDy=0;entryX=0.5;entryY=0;entryDx=0;entryDy=0;endSize=16;" parent="1" source="pQJ2UA4PGWdk1iYAKSUe-30" target="pQJ2UA4PGWdk1iYAKSUe-16" edge="1">
          <mxGeometry width="50" height="50" relative="1" as="geometry">
            <mxPoint x="520" y="390" as="sourcePoint" />
            <mxPoint x="570" y="340" as="targetPoint" />
          </mxGeometry>
        </mxCell>
        <mxCell id="pQJ2UA4PGWdk1iYAKSUe-45" value="" style="endArrow=classic;html=1;rounded=0;exitX=0.5;exitY=1;exitDx=0;exitDy=0;entryX=0.5;entryY=0;entryDx=0;entryDy=0;endSize=16;" parent="1" target="pQJ2UA4PGWdk1iYAKSUe-30" edge="1">
          <mxGeometry width="50" height="50" relative="1" as="geometry">
            <mxPoint x="209.99999999999997" y="130" as="sourcePoint" />
            <mxPoint x="209.99999999999997" y="285" as="targetPoint" />
          </mxGeometry>
        </mxCell>
        <mxCell id="pQJ2UA4PGWdk1iYAKSUe-46" value="" style="endArrow=classic;html=1;rounded=0;exitX=0.5;exitY=0;exitDx=0;exitDy=0;endSize=16;startSize=16;entryX=0.5;entryY=1;entryDx=0;entryDy=0;" parent="1" source="pQJ2UA4PGWdk1iYAKSUe-14" target="pQJ2UA4PGWdk1iYAKSUe-32" edge="1">
          <mxGeometry width="50" height="50" relative="1" as="geometry">
            <mxPoint x="700" y="739.9999999999995" as="sourcePoint" />
            <mxPoint x="700" y="350" as="targetPoint" />
          </mxGeometry>
        </mxCell>
        <mxCell id="pQJ2UA4PGWdk1iYAKSUe-47" value="同じネットワーク内" style="text;html=1;whiteSpace=wrap;strokeColor=none;fillColor=none;align=center;verticalAlign=middle;rounded=0;" parent="1" vertex="1">
          <mxGeometry x="270" y="-80" width="340" height="30" as="geometry" />
        </mxCell>
        <mxCell id="pQJ2UA4PGWdk1iYAKSUe-48" value="MetaQuestでどんなプログラム構成にするのか分からないので教えて欲しいです" style="text;html=1;whiteSpace=wrap;strokeColor=none;fillColor=none;align=center;verticalAlign=middle;rounded=0;" parent="1" vertex="1">
          <mxGeometry x="510" y="-510" width="340" height="30" as="geometry" />
        </mxCell>
        <mxCell id="K-jnSiiK8jrjsHDx-08f-5" style="edgeStyle=orthogonalEdgeStyle;rounded=0;orthogonalLoop=1;jettySize=auto;html=1;" edge="1" parent="1" source="K-jnSiiK8jrjsHDx-08f-1" target="K-jnSiiK8jrjsHDx-08f-3">
          <mxGeometry relative="1" as="geometry" />
        </mxCell>
        <mxCell id="K-jnSiiK8jrjsHDx-08f-1" value="GameManager" style="rounded=0;whiteSpace=wrap;html=1;" vertex="1" parent="1">
          <mxGeometry x="365" y="-40" width="120" height="60" as="geometry" />
        </mxCell>
        <mxCell id="K-jnSiiK8jrjsHDx-08f-4" style="edgeStyle=orthogonalEdgeStyle;rounded=0;orthogonalLoop=1;jettySize=auto;html=1;exitX=0.5;exitY=0;exitDx=0;exitDy=0;entryX=1;entryY=0.5;entryDx=0;entryDy=0;" edge="1" parent="1" source="K-jnSiiK8jrjsHDx-08f-2" target="K-jnSiiK8jrjsHDx-08f-1">
          <mxGeometry relative="1" as="geometry" />
        </mxCell>
        <mxCell id="K-jnSiiK8jrjsHDx-08f-2" value="重心検出 / OSC受信 (PlayerBalanceReceiver: OSC受信)&amp;nbsp;" style="rounded=0;whiteSpace=wrap;html=1;" vertex="1" parent="1">
          <mxGeometry x="575" y="60" width="120" height="60" as="geometry" />
        </mxCell>
        <mxCell id="K-jnSiiK8jrjsHDx-08f-3" value="姿勢制御出力&lt;div&gt;(BoatMotionSender: TCP送信)&amp;nbsp;&amp;nbsp;&lt;/div&gt;" style="rounded=0;whiteSpace=wrap;html=1;" vertex="1" parent="1">
          <mxGeometry x="150" y="70" width="120" height="60" as="geometry" />
        </mxCell>
        <mxCell id="K-jnSiiK8jrjsHDx-08f-8" value="TCPクライアント" style="text;html=1;whiteSpace=wrap;strokeColor=none;fillColor=none;align=center;verticalAlign=middle;rounded=0;" vertex="1" parent="1">
          <mxGeometry x="-30" y="60" width="246" height="80" as="geometry" />
        </mxCell>
        <mxCell id="K-jnSiiK8jrjsHDx-08f-9" value="TCPサーバー" style="text;html=1;whiteSpace=wrap;strokeColor=none;fillColor=none;align=center;verticalAlign=middle;rounded=0;" vertex="1" parent="1">
          <mxGeometry x="-30" y="265" width="246" height="80" as="geometry" />
        </mxCell>
        <mxCell id="K-jnSiiK8jrjsHDx-08f-10" value="細かいゲームの実装内容は&lt;div&gt;後々書いていく&lt;/div&gt;" style="text;html=1;whiteSpace=wrap;strokeColor=none;fillColor=none;align=center;verticalAlign=middle;rounded=0;" vertex="1" parent="1">
          <mxGeometry x="460" y="-170" width="246" height="80" as="geometry" />
        </mxCell>
        <mxCell id="K-jnSiiK8jrjsHDx-08f-13" value="&lt;div&gt;ON / OFFするスイッチ？&lt;/div&gt;&lt;div&gt;&lt;span style=&quot;background-color: transparent; color: light-dark(rgb(0, 0, 0), rgb(255, 255, 255));&quot;&gt;電源制御？&lt;/span&gt;&lt;/div&gt;" style="text;html=1;whiteSpace=wrap;strokeColor=none;fillColor=none;align=center;verticalAlign=middle;rounded=0;" vertex="1" parent="1">
          <mxGeometry x="354" y="590" width="120" height="50" as="geometry" />
        </mxCell>
        <mxCell id="K-jnSiiK8jrjsHDx-08f-14" value="加速度センサ" style="text;html=1;whiteSpace=wrap;strokeColor=none;fillColor=none;align=center;verticalAlign=middle;rounded=0;" vertex="1" parent="1">
          <mxGeometry x="735" y="540" width="145" height="30" as="geometry" />
        </mxCell>
        <mxCell id="K-jnSiiK8jrjsHDx-08f-15" value="圧力センサ" style="text;html=1;whiteSpace=wrap;strokeColor=none;fillColor=none;align=center;verticalAlign=middle;rounded=0;" vertex="1" parent="1">
          <mxGeometry x="562.5" y="640" width="145" height="30" as="geometry" />
        </mxCell>
        <mxCell id="K-jnSiiK8jrjsHDx-08f-16" value="マイコン" style="text;html=1;whiteSpace=wrap;strokeColor=none;fillColor=none;align=center;verticalAlign=middle;rounded=0;" vertex="1" parent="1">
          <mxGeometry x="575" y="540" width="145" height="30" as="geometry" />
        </mxCell>
        <mxCell id="K-jnSiiK8jrjsHDx-08f-17" value="OSCライブラリ" style="text;html=1;whiteSpace=wrap;strokeColor=none;fillColor=none;align=center;verticalAlign=middle;rounded=0;" vertex="1" parent="1">
          <mxGeometry x="660" y="340" width="145" height="30" as="geometry" />
        </mxCell>
        <mxCell id="K-jnSiiK8jrjsHDx-08f-18" value="ゲーム進行管理" style="text;html=1;whiteSpace=wrap;strokeColor=none;fillColor=none;align=center;verticalAlign=middle;rounded=0;" vertex="1" parent="1">
          <mxGeometry x="354" y="30" width="145" height="30" as="geometry" />
        </mxCell>
      </root>
    </mxGraphModel>
  </diagram>
</mxfile>
